<mxfile host="65bd71144e">
    <diagram id="XPA3eTLZ63l8F0kkl4r7" name="Page-1">
        <mxGraphModel dx="562" dy="427" grid="0" gridSize="10" guides="1" tooltips="1" connect="1" arrows="1" fold="1" page="0" pageScale="1" pageWidth="850" pageHeight="1100" math="0" shadow="0">
            <root>
                <mxCell id="0"/>
                <mxCell id="1" parent="0"/>
                <mxCell id="2" value="wiki" style="shape=umlFrame;whiteSpace=wrap;html=1;" vertex="1" parent="1">
                    <mxGeometry x="155" y="33" width="300" height="373" as="geometry"/>
                </mxCell>
                <mxCell id="3" value="Actor" style="shape=umlActor;verticalLabelPosition=bottom;verticalAlign=top;html=1;" vertex="1" parent="1">
                    <mxGeometry x="56" y="81" width="30" height="60" as="geometry"/>
                </mxCell>
                <mxCell id="4" value="Actor" style="shape=umlActor;verticalLabelPosition=bottom;verticalAlign=top;html=1;" vertex="1" parent="1">
                    <mxGeometry x="56" y="237" width="30" height="60" as="geometry"/>
                </mxCell>
                <mxCell id="5" value="register" style="ellipse;whiteSpace=wrap;html=1;" vertex="1" parent="1">
                    <mxGeometry x="184" y="70" width="84" height="34" as="geometry"/>
                </mxCell>
                <mxCell id="6" value="login" style="ellipse;whiteSpace=wrap;html=1;" vertex="1" parent="1">
                    <mxGeometry x="184" y="107" width="84" height="34" as="geometry"/>
                </mxCell>
                <mxCell id="7" value="Recherche" style="ellipse;whiteSpace=wrap;html=1;" vertex="1" parent="1">
                    <mxGeometry x="187" y="148" width="84" height="34" as="geometry"/>
                </mxCell>
                <mxCell id="8" value="Add wiki" style="ellipse;whiteSpace=wrap;html=1;" vertex="1" parent="1">
                    <mxGeometry x="187" y="189.5" width="84" height="34" as="geometry"/>
                </mxCell>
                <mxCell id="9" value="Update wiki" style="ellipse;whiteSpace=wrap;html=1;" vertex="1" parent="1">
                    <mxGeometry x="187" y="229" width="84" height="34" as="geometry"/>
                </mxCell>
                <mxCell id="10" value="Read wiki" style="ellipse;whiteSpace=wrap;html=1;" vertex="1" parent="1">
                    <mxGeometry x="189" y="266" width="84" height="34" as="geometry"/>
                </mxCell>
                <mxCell id="11" value="delete wiki" style="ellipse;whiteSpace=wrap;html=1;" vertex="1" parent="1">
                    <mxGeometry x="191" y="306" width="84" height="34" as="geometry"/>
                </mxCell>
            </root>
        </mxGraphModel>
    </diagram>
</mxfile>